<?xml version="1.0" standalone="no"?>
<!DOCTYPE svg PUBLIC "-//W3C//DTD SVG 1.1//EN" "http://www.w3.org/Graphics/SVG/1.1/DTD/svg11.dtd" >
<svg xmlns="http://www.w3.org/2000/svg" xmlns:xlink="http://www.w3.org/1999/xlink" version="1.1">
<metadata>
Created by FontForge 20170731 at Mon Apr 21 05:03:11 2014
 By Aleksey,,,
Copyright (c) 2014 by Shrenik Ganatra. All rights reserved.
</metadata>
<defs>
<font id="ADAM.CGPRO" horiz-adv-x="695" >
  <font-face 
    font-family="ADAM.CG PRO"
    font-weight="400"
    font-stretch="normal"
    units-per-em="1000"
    panose-1="0 0 0 0 0 0 0 0 0 0"
    ascent="750"
    descent="-250"
    x-height="742"
    cap-height="742"
    bbox="1 -218 1155 975"
    underline-thickness="50"
    underline-position="-200"
    unicode-range="U+000D-2212"
  />
<missing-glyph horiz-adv-x="300" 
 />
    <glyph glyph-name=".notdef" horiz-adv-x="300" 
 />
    <glyph glyph-name=".null" horiz-adv-x="0" 
 />
    <glyph glyph-name="nonmarkingreturn" horiz-adv-x="333" 
 />
    <glyph glyph-name="NULL" horiz-adv-x="0" 
 />
    <glyph glyph-name="NULL" horiz-adv-x="0" 
 />
    <glyph glyph-name="CR" unicode="&#xd;" horiz-adv-x="300" 
 />
    <glyph glyph-name="space" unicode=" " horiz-adv-x="300" 
 />
    <glyph glyph-name="exclam" unicode="!" horiz-adv-x="277" 
d="M139 133q27 0 46.5 -19.5t19.5 -47.5q0 -27 -19.5 -46.5t-46.5 -19.5q-28 0 -47.5 19.5t-19.5 46.5q0 28 19.5 47.5t47.5 19.5zM139 194q-31 0 -55 -13l-24 601h157l-24 -600q-22 12 -54 12z" />
    <glyph glyph-name="quotedbl" unicode="&#x22;" horiz-adv-x="373" 
d="M142 556h-70l12 186h104zM272 556h-70l12 186h104z" />
    <glyph glyph-name="numbersign" unicode="#" horiz-adv-x="863" 
d="M813 447h-146l-40 -152h117v-116h-148l-48 -179h-121l48 179h-158l-48 -179h-121l48 179h-118v116h149l41 152h-121v116h152l57 213h120l-57 -213h159l57 213h120l-57 -213h115v-116zM506 295l41 152h-159l-40 -152h158z" />
    <glyph glyph-name="dollar" unicode="$" horiz-adv-x="535" 
d="M482 247q17 -55 2 -108q-16 -56 -63 -97t-109 -54v-68h-70v64q-38 3 -71 16q-76 29 -129 99l96 75q35 -44 77 -60q9 -4 27 -8v239q-3 4 -6 7l-94 90q-44 41 -61 93q-16 51 -1 98q14 50 57 87q39 33 93 44q8 2 12 2v66h70v-68q16 -3 33 -9q61 -23 105 -79l-95 -76
q-18 25 -43 37v-189l43 -43q46 -43 60 -56q49 -48 67 -102zM226 530l16 -16v128q-37 -13 -46 -43q-9 -31 30 -69zM367 172q12 43 -35 88q-7 6 -20 19v-164q44 20 55 57z" />
    <glyph glyph-name="percent" unicode="%" horiz-adv-x="702" 
d="M196 0h-96l405 742h96zM177 392q-30 0 -56 16q-22 14 -37 42q-23 44 -23 117t23 117q13 26 37 42q23 16 56 16q32 0 57 -16q23 -17 36 -42q23 -42 23 -117q0 -73 -23 -117q-13 -26 -37 -42q-26 -16 -56 -16zM177 687q-30 0 -44 -28q-17 -32 -17 -92q0 -59 17 -91
q15 -29 44 -29t45 29q16 31 16 91q0 61 -16 92q-15 28 -45 28zM525 350q33 0 56 -16q22 -14 37 -42q23 -44 23 -117t-23 -117q-13 -26 -37 -42q-23 -16 -56 -16q-32 0 -57 16q-22 15 -36 42q-23 42 -23 117t23 117q13 25 36 42q25 16 57 16zM525 55q29 0 44 28q17 32 17 92
t-17 92q-15 28 -44 28t-45 -28q-16 -31 -16 -92t16 -92q16 -28 45 -28z" />
    <glyph glyph-name="ampersand" unicode="&#x26;" horiz-adv-x="591" 
d="M421 243h111v-294h-111v71q-48 -19 -107 -19q-109 0 -185 64q-37 30 -59 74q-23 44 -23 93q0 83 58 147q14 14 29 26q-22 21 -36 45q-25 41 -25 94q0 43 19 81q18 36 51 63q65 54 156 54q57 0 108 -23q58 -28 89 -77l-92 -60q-16 24 -44 37q-29 13 -61 13q-51 0 -85 -29
q-31 -25 -31 -59q0 -44 46 -72q65 -40 207 -40v-110q-110 0 -186 22q-41 -13 -67 -44t-26 -68q0 -46 42 -82q48 -39 115 -39q62 0 107 34v98z" />
    <glyph glyph-name="quotesingle" unicode="'" horiz-adv-x="215" 
d="M136 556h-70l12 186h104z" />
    <glyph glyph-name="parenleft" unicode="(" horiz-adv-x="350" 
d="M222 -133q-89 91 -138 220q-51 132 -51 283t51 283q49 129 138 220l82 -82q-71 -72 -112 -179q-43 -114 -43 -242t43 -242q41 -107 112 -179z" />
    <glyph glyph-name="parenright" unicode=")" horiz-adv-x="350" 
d="M129 -133l-83 82q70 70 112 179q43 114 43 242t-43 242q-42 109 -112 179l82 82q89 -90 139 -220q50 -133 50 -283t-50 -283q-50 -129 -138 -220z" />
    <glyph glyph-name="asterisk" unicode="*" horiz-adv-x="295" 
d="M254 637l-61 -4l43 -51l-65 -37l-22 62l-22 -62l-65 37l42 50l-68 5l20 73l67 -32l-12 64h75l-11 -60l59 28z" />
    <glyph glyph-name="plus" unicode="+" horiz-adv-x="618" 
d="M540 421v-100h-181v-181h-100v181h-181v100h181v181h100v-181h181z" />
    <glyph glyph-name="comma" unicode="," horiz-adv-x="252" 
d="M194 70q0 -13 -5 -26l-53 -151h-40l24 107q-28 2 -47 22t-19 48q0 29 20.5 49t49.5 20t49.5 -20.5t20.5 -48.5z" />
    <glyph glyph-name="hyphen" unicode="-" horiz-adv-x="467" 
d="M390 321h-312v100h312v-100z" />
    <glyph glyph-name="period" unicode="." horiz-adv-x="252" 
d="M194 70q0 -29 -20.5 -49.5t-49.5 -20.5t-49.5 20.5t-20.5 49.5t20.5 49.5t49.5 20.5q28 0 49 -21t21 -49z" />
    <glyph glyph-name="slash" unicode="/" horiz-adv-x="491" 
d="M194 -97h-116l219 928h116z" />
    <glyph glyph-name="zero" unicode="0" horiz-adv-x="682" 
d="M343 0q-71 0 -130 35q-52 30 -91 90q-67 103 -67 247q0 143 66 247q39 57 90 88q57 35 130 35q74 0 129 -35q54 -31 90 -90q67 -103 67 -247q0 -142 -66 -246q-36 -57 -89 -89q-59 -35 -129 -35zM341 626q-77 0 -122 -71q-48 -74 -48 -183t48 -184q47 -72 124 -72
q75 0 120 71q47 72 47 183q0 110 -47 184q-46 72 -122 72z" />
    <glyph glyph-name="one" unicode="1" horiz-adv-x="355" 
d="M278 0h-116v511l-92 -69l-69 93l277 207v-742z" />
    <glyph glyph-name="two" unicode="2" horiz-adv-x="611" 
d="M268 118h284v-118h-521l72 94q173 229 275 365q34 46 40 84q3 28 -8 45q-12 20 -38 30t-55 6q-35 -6 -58 -28q-29 -27 -39 -70l-104 61q20 56 64 96q51 46 119 57q65 10 123.5 -15t88.5 -76q34 -55 23 -123q-9 -68 -62 -137q-159 -212 -204 -271z" />
    <glyph glyph-name="three" unicode="3" horiz-adv-x="631" 
d="M304 0h-17q-114 8 -234 90l66 95q82 -58 157 -67.5t127 29.5q38 29 53.5 73.5t2.5 84.5q-14 38 -50 60q-46 28 -125 28l-99 -1l128 235h-213v115h409l-133 -242q52 -12 94 -36q72 -45 98 -122q26 -75 -1 -157q-29 -81 -94 -130q-73 -55 -169 -55z" />
    <glyph glyph-name="four" unicode="4" horiz-adv-x="609" 
d="M488 0h-116v130h-371l487 651v-535h70v-116h-70v-130zM234 246h138v185z" />
    <glyph glyph-name="five" unicode="5" horiz-adv-x="622" 
d="M297 0h-13q-115 5 -237 89l65 96q97 -66 177 -69q63 -3 104 32q32 26 43 67q10 41 -5 75q-20 44 -73 65q-70 30 -185 14l-75 -11l48 384h354v-115h-252l-17 -137q95 3 171 -28q98 -40 134 -125q32 -71 12.5 -149t-81.5 -129q-71 -59 -170 -59z" />
    <glyph glyph-name="six" unicode="6" horiz-adv-x="599" 
d="M494 394q59 -62 59 -154q0 -94 -59 -162q-67 -78 -171 -78q-149 0 -217 133q-51 98 -37 231.5t85 235.5q54 76 126 111q75 38 162 30v-117q-60 9 -110 -17q-47 -23 -83 -74q-28 -40 -46 -94q50 24 113 24q113 0 178 -69zM406 153q31 37 31 87q0 47 -27 74q-32 33 -94 33
q-71 0 -107 -51q-17 -25 -21 -45q6 -37 21 -65q36 -70 114 -70q50 0 83 37z" />
    <glyph glyph-name="seven" unicode="7" horiz-adv-x="548" 
d="M196 0h-128l288 626h-286v116h468z" />
    <glyph glyph-name="eight" unicode="8" horiz-adv-x="607" 
d="M488 385q63 -66 63 -157q0 -92 -63 -157q-67 -71 -180 -71q-116 0 -186 70q-66 64 -66 158q0 93 65 158q6 6 18 16q-58 56 -58 140q0 83 59 140q64 60 166 60q101 0 163 -62q58 -58 58 -140q0 -80 -57 -139q3 -2 9 -7.5t9 -8.5zM221 598q-24 -22 -24 -56q0 -33 24 -57
q31 -29 87 -29q52 0 77 25t25 59q0 35 -23 58q-30 28 -81 28q-55 0 -85 -28zM405 152q29 29 29 76q0 46 -30 76q-34 36 -98 36q-55 0 -94.5 -29t-39.5 -83q0 -46 31 -75q37 -37 105 -37q61 0 97 36z" />
    <glyph glyph-name="nine" unicode="9" horiz-adv-x="600" 
d="M106 348q-59 62 -59 154q0 93 59 163q66 77 172 77q71 0 127 -34t89 -98q51 -98 37.5 -232t-85.5 -235q-52 -74 -126 -112q-77 -38 -174 -30v117q69 -9 122 17q49 24 83 75q27 38 47 94q-53 -25 -114 -25q-111 0 -178 69zM194 589q-31 -38 -31 -87q0 -44 27 -74
q33 -33 94 -33q71 0 107 52q14 18 22 45q-8 38 -22 64q-36 70 -113 70q-51 0 -84 -37z" />
    <glyph glyph-name="colon" unicode=":" horiz-adv-x="252" 
d="M194 463q0 -29 -21 -49.5t-49 -20.5q-29 0 -49.5 20.5t-20.5 49.5t20.5 49.5t49.5 20.5t49.5 -20.5t20.5 -49.5zM194 70q0 -29 -20.5 -49.5t-49.5 -20.5t-49.5 20.5t-20.5 49.5t20.5 49.5t49.5 20.5q28 0 49 -21t21 -49z" />
    <glyph glyph-name="semicolon" unicode=";" horiz-adv-x="252" 
d="M194 70q0 -13 -5 -26l-53 -151h-40l24 107q-28 2 -47 22t-19 48q0 29 20.5 49t49.5 20t49.5 -20.5t20.5 -48.5zM194 463q0 -29 -21 -49.5t-49 -20.5q-29 0 -49.5 20.5t-20.5 49.5t20.5 49.5t49.5 20.5t49.5 -20.5t20.5 -49.5z" />
    <glyph glyph-name="less" unicode="&#x3c;" horiz-adv-x="516" 
d="M297 149l-219 224l219 220h141l-220 -221l220 -223h-141z" />
    <glyph glyph-name="equal" unicode="=" horiz-adv-x="568" 
d="M491 412h-413v100h413v-100zM491 230h-413v100h413v-100z" />
    <glyph glyph-name="greater" unicode="&#x3e;" horiz-adv-x="516" 
d="M218 149h-140l219 223l-219 221h140l220 -220z" />
    <glyph glyph-name="question" unicode="?" horiz-adv-x="589" 
d="M267 134q28 0 47.5 -19.5t19.5 -47.5t-19.5 -47.5t-47.5 -19.5t-47.5 19.5t-19.5 47.5t19.5 47.5t47.5 19.5zM505 692q45 -61 30 -139q-17 -81 -94 -167l-18 -18q-39 -39 -60 -77q-29 -53 -32 -110q-28 14 -63 14q-36 0 -60 -14q5 85 47 160q27 49 76 100q6 5 14 13
q50 56 64 100q17 47 -7 78q-18 25 -59 36q-22 5 -41 5q-24 0 -43 -6q-37 -9 -58 -33q-27 -30 -28 -75h-123q3 81 50 137q46 55 122 75q41 11 80 11q63 0 117.5 -24t85.5 -66z" />
    <glyph glyph-name="at" unicode="@" horiz-adv-x="645" 
d="M545 504q58 -70 44 -176l-19 -132q-9 -65 -38 -108q-26 -39 -63 -54q-50 -21 -86 7q-25 18 -23 50h-74q-49 0 -78 31q-28 32 -20 82q6 44 36 74q34 32 84 32h83l3 27q4 29 -19 39q-20 9 -49.5 2.5t-44.5 -25.5l-53 42q30 36 82 49q51 11 92 -7q33 -14 48.5 -43t10.5 -66
l-33 -235q10 0 18 4q46 20 58 108l18 132q6 39 -2 73q-7 28 -26 51q-36 43 -101 52q-41 5 -81 -4q-42 -9 -77 -32q-80 -53 -93 -149l-19 -132q-11 -77 30 -124q27 -31 81 -50q67 -23 167 -23v-67q-113 0 -189 27q-70 24 -110 70q-33 38 -44 91q-7 39 -1 85q18 131 18 132
q9 63 43 116q32 48 80 80q95 62 204 46q43 -6 79 -24q37 -19 64 -51zM368 151l14 98h-74q-27 0 -42 -15q-15 -13 -18 -38q-3 -23 6 -34t32 -11h82z" />
    <glyph glyph-name="A" unicode="A" 
d="M543 0l-63 159h-264l-63 -159h-128l323 776l322 -776h-127zM258 263h180l-90 226z" />
    <glyph glyph-name="B" unicode="B" horiz-adv-x="588" 
d="M519 318q19 -44 19 -98q0 -55 -24 -100q-24 -42 -68 -71q-78 -49 -204 -49h-66h-98v742h116h48q122 0 184 -46q34 -25 51 -64q15 -34 15 -78q0 -75 -58 -136q16 -11 34 -27q33 -33 51 -73zM242 638h-48v-225q40 9 76 24q57 23 86 52q31 30 31 65q0 41 -24 58
q-35 26 -121 26zM389 137q45 29 45 83q0 58 -39 95q-22 22 -57 37q-4 -1 -14.5 -6t-16.5 -7q-45 -19 -113 -34v-200h48q97 0 147 32z" />
    <glyph glyph-name="C" unicode="C" horiz-adv-x="677" 
d="M623 219v-158q-31 -20 -60 -32q-70 -29 -145 -29t-144 29q-66 28 -118 80t-80 118q-29 69 -29 144t29 145q29 67 80 118q53 53 118 79q65 29 144 29q78 0 145 -29q2 -1 8 -3.5t8 -3.5v-137q-69 57 -161 57q-107 0 -180 -75q-75 -75 -75 -180t75 -180t180 -75t180 75
q13 13 25 28z" />
    <glyph glyph-name="D" unicode="D" horiz-adv-x="675" 
d="M535 631q90 -99 90 -260t-90 -260q-49 -55 -119 -82q-73 -29 -162 -29h-137h-39v742h116h60q92 0 162 -29q70 -27 119 -82zM449 189q60 66 60 182t-60 182q-66 73 -195 73h-60v-510h60q128 0 195 73z" />
    <glyph glyph-name="E" unicode="E" horiz-adv-x="582" 
d="M194 638v-198h271v-105h-271v-230h329v-105h-330h-115v742h115h330v-104h-329z" />
    <glyph glyph-name="F" unicode="F" horiz-adv-x="583" 
d="M194 638v-198h271v-105h-271v-335h-116v742h115h331v-104h-330z" />
    <glyph glyph-name="G" unicode="G" horiz-adv-x="710" 
d="M651 385v-105v-201l-26 -18v0q-1 0 -2 -1q-2 -2 -4 -2q-2 -2 -3 -2q-2 -2 -4 -2q-2 -2 -4 -3q0 -1 -1 -1t-2 -1l-1 -1q-2 0 -2 -1q-1 -1 -2.5 -1t-2.5 -1l-1 -1q-2 0 -2 -1q-2 -2 -5 -2l-2 -2h-2q-1 -1 -5 -3q-1 0 -3.5 -1t-3.5 -2l-1 -1q-61 -27 -133 -32h-1h-8h-1h-9
q-63 0 -117 19h-1q-2 1 -5.5 2.5t-5.5 1.5l-15 6q-20 7 -36 18q-46 25 -82 62q-52 52 -80 118q-23 55 -27 107q-2 24 -2 37v19q5 69 29 126q29 67 80 118q53 53 118 79q65 29 144 29h9h1h8h1q6 0 9 -1q66 -5 125 -31q0 -1 1 -1l6 -3h1v0v-137q-19 17 -50 32q-24 11 -46 17
q-2 0 -3 1h-3q-1 1 -4 1q-1 0 -2 1q-2 1 -6.5 1t-6.5 1h-2l-2 1h-2h-2q-3 0 -4 1h-3h-6q-1 0 -3 1h-3h-4h-2h-7q-72 0 -131 -36q-1 -1 -5 -3q-25 -16 -44 -36q-1 -1 -4 -3.5t-5 -5t-4 -4.5q0 -1 -1 -1q-5 -6 -13 -18l-2 -2l-6 -9q-2 -2 -2 -4q-22 -35 -31 -76q-1 -1 -1 -2
q-4 -20 -5 -30v-11q-1 -5 -1 -14q0 -8 1 -13q2 -29 9 -56q18 -64 65 -111q75 -75 180 -75h7q2 0 3 1h4h3h3h5q0 1 2 1h4h2q4 0 11.5 2t10.5 2q1 0 2 1q3 0 4 1h3q1 1 3 1q1 1 4 1l2 1q24 7 41 16h1v137h-140v105h256z" />
    <glyph glyph-name="H" unicode="H" horiz-adv-x="683" 
d="M606 742v-742h-116v320h-296v-320h-116v742h116v-317h296v317h116z" />
    <glyph glyph-name="I" unicode="I" horiz-adv-x="270" 
d="M194 0h-116v742h116v-742z" />
    <glyph glyph-name="J" unicode="J" horiz-adv-x="420" 
d="M351 742v-490q0 -121 -84 -192q-71 -60 -180 -60q-25 0 -47 3v119q22 -6 47 -6q65 0 106 33q41 35 41 103v490h117z" />
    <glyph glyph-name="K" unicode="K" horiz-adv-x="653" 
d="M633 0h-145l-294 336v-336h-116v742h116v-306l238 306h146l-272 -357z" />
    <glyph glyph-name="L" unicode="L" horiz-adv-x="511" 
d="M504 105v-105h-311h-115v742h116v-637h310z" />
    <glyph glyph-name="M" unicode="M" horiz-adv-x="853" 
d="M776 0h-117v394l-232 -346l-233 346v-394h-116v776l349 -520l349 520v-776z" />
    <glyph glyph-name="N" unicode="N" horiz-adv-x="738" 
d="M661 -34l-467 511v-477h-116v777l466 -511v476h117v-776z" />
    <glyph glyph-name="O" unicode="O" horiz-adv-x="849" 
d="M425 0q-75 0 -144 29q-66 28 -118 80t-80 118q-29 69 -29 144t29 145q28 64 80 118q51 50 118 79q69 29 144 29t145 -29q66 -29 118 -79q50 -52 79 -118q29 -70 29 -145t-29 -144q-29 -67 -79 -118q-54 -52 -118 -80q-70 -29 -145 -29zM425 626q-105 0 -180 -75t-75 -180
t75 -180t180 -75t180 75t75 180t-75 180t-180 75z" />
    <glyph glyph-name="P" unicode="P" horiz-adv-x="561" 
d="M78 742h98h122q119 0 185 -73q60 -66 60 -172q0 -107 -60 -172q-65 -74 -185 -74h-104v-251h-116v742zM406 395q33 37 33 102q0 64 -33 101q-37 40 -108 40h-104v-282h104q72 0 108 39z" />
    <glyph glyph-name="Q" unicode="Q" horiz-adv-x="846" 
d="M760 227q-29 -67 -79 -118l-8 -8l67 -88l-84 -63l-68 91q-4 -2 -12.5 -6t-12.5 -6q-70 -29 -145 -29t-144 29q-66 28 -118 80t-80 118q-29 69 -29 144t29 145q29 67 80 118q51 50 118 79q65 29 144 29q78 0 145 -29q69 -30 118 -79t79 -118q29 -67 29 -145
q0 -79 -29 -144zM418 116q51 0 99 20l-52 69l84 63l54 -73q70 75 70 176q0 105 -75 180t-180 75t-180 -75t-75 -180t75 -180t180 -75z" />
    <glyph glyph-name="R" unicode="R" horiz-adv-x="641" 
d="M397 268l200 -268h-131l-187 251h-85v-251h-116v742h98h122q120 0 185 -74q60 -66 60 -172q0 -105 -60 -171q-35 -39 -86 -57zM194 355h104q72 0 107 40q33 35 33 101q0 67 -33 102q-34 39 -107 39h-104v-282z" />
    <glyph glyph-name="S" unicode="S" horiz-adv-x="528" 
d="M469 253q17 -53 2 -104q-16 -54 -61 -93.5t-106 -51.5q-20 -4 -45 -4q-47 0 -88 16q-72 29 -123 95l92 72q32 -43 73 -58q34 -14 68 -6q28 5 49.5 22t28.5 40q12 40 -34 84q-49 46 -91 88l-91 86q-42 40 -57 89q-16 49 -2 94q13 48 55 83q39 33 89 42q54 12 110 -8
q58 -23 101 -75l-91 -73q-43 52 -98 42q-20 -4 -35 -15.5t-19 -27.5q-9 -31 28 -67l124 -119q24 -24 56 -54q48 -44 65 -97z" />
    <glyph glyph-name="T" unicode="T" horiz-adv-x="584" 
d="M555 742v-104h-204v-638h-117v638h-204v104h525z" />
    <glyph glyph-name="U" unicode="U" horiz-adv-x="691" 
d="M346 0q-108 0 -184 59q-43 33 -66 80q-25 50 -25 113v490h116v-490q0 -66 46 -101q45 -35 113 -35q67 0 113 35q45 35 45 101v490h117v-490q0 -60 -25 -113q-24 -47 -66 -80q-76 -59 -184 -59z" />
    <glyph glyph-name="V" unicode="V" horiz-adv-x="708" 
d="M153 742l209 -489l195 489h126l-318 -775l-340 775h128z" />
    <glyph glyph-name="W" unicode="W" horiz-adv-x="1121" 
d="M1080 742l-319 -775l-196 447l-184 -447l-340 775h128l209 -489l123 308l60 153l65 -151l132 -310l195 489h127z" />
    <glyph glyph-name="X" unicode="X" horiz-adv-x="801" 
d="M744 0h-146l-198 290l-197 -290h-146l270 397l-235 345h146l162 -238l163 238h146l-236 -345z" />
    <glyph glyph-name="Y" unicode="Y" horiz-adv-x="688" 
d="M663 742l-260 -354v-388h-116v388l-261 354h135l184 -254l184 254h134z" />
    <glyph glyph-name="Z" unicode="Z" horiz-adv-x="705" 
d="M629 0h-578l381 626h-298v116h505l-381 -626h371v-116z" />
    <glyph glyph-name="bracketleft" unicode="[" horiz-adv-x="326" 
d="M194 798v-856h106v-70h-222v996h222v-70h-106z" />
    <glyph glyph-name="backslash" unicode="\" horiz-adv-x="491" 
d="M297 -97l-219 928h116l219 -928h-116z" />
    <glyph glyph-name="bracketright" unicode="]" horiz-adv-x="325" 
d="M132 798h-106v70h222v-996h-222v70h106v856z" />
    <glyph glyph-name="asciicircum" unicode="^" horiz-adv-x="501" 
d="M135 367h-110l231 375l218 -375h-108l-113 179z" />
    <glyph glyph-name="underscore" unicode="_" horiz-adv-x="780" 
d="M702 -170h-624v100h624v-100z" />
    <glyph glyph-name="grave" unicode="`" horiz-adv-x="226" 
d="M181 619h-73l-86 123h110z" />
    <glyph glyph-name="a" unicode="a" 
d="M543 0l-63 159h-264l-63 -159h-128l323 776l322 -776h-127zM258 263h180l-90 226z" />
    <glyph glyph-name="b" unicode="b" horiz-adv-x="588" 
d="M519 318q19 -44 19 -98q0 -55 -24 -100q-24 -42 -68 -71q-78 -49 -204 -49h-66h-98v742h116h48q122 0 184 -46q34 -25 51 -64q15 -34 15 -78q0 -75 -58 -136q16 -11 34 -27q33 -33 51 -73zM242 638h-48v-225q40 9 76 24q57 23 86 52q31 30 31 65q0 41 -24 58
q-35 26 -121 26zM389 137q45 29 45 83q0 58 -39 95q-22 22 -57 37q-4 -1 -14.5 -6t-16.5 -7q-45 -19 -113 -34v-200h48q97 0 147 32z" />
    <glyph glyph-name="c" unicode="c" horiz-adv-x="677" 
d="M623 219v-158q-31 -20 -60 -32q-70 -29 -145 -29t-144 29q-66 28 -118 80t-80 118q-29 69 -29 144t29 145q29 67 80 118q53 53 118 79q65 29 144 29q78 0 145 -29q2 -1 8 -3.5t8 -3.5v-137q-69 57 -161 57q-107 0 -180 -75q-75 -75 -75 -180t75 -180t180 -75t180 75
q13 13 25 28z" />
    <glyph glyph-name="d" unicode="d" horiz-adv-x="675" 
d="M535 631q90 -99 90 -260t-90 -260q-49 -55 -119 -82q-73 -29 -162 -29h-137h-39v742h116h60q92 0 162 -29q70 -27 119 -82zM449 189q60 66 60 182t-60 182q-66 73 -195 73h-60v-510h60q128 0 195 73z" />
    <glyph glyph-name="e" unicode="e" horiz-adv-x="582" 
d="M194 638v-198h271v-105h-271v-230h329v-105h-330h-115v742h115h330v-104h-329z" />
    <glyph glyph-name="f" unicode="f" horiz-adv-x="533" 
d="M194 638v-198h271v-105h-271v-335h-116v742h115h331v-104h-330z" />
    <glyph glyph-name="g" unicode="g" horiz-adv-x="710" 
d="M651 385v-105v-201l-26 -18v0q-1 0 -2 -1q-2 -2 -4 -2q-2 -2 -3 -2q-2 -2 -4 -2q-2 -2 -4 -3q0 -1 -1 -1t-2 -1l-1 -1q-2 0 -2 -1q-1 -1 -2.5 -1t-2.5 -1l-1 -1q-2 0 -2 -1q-2 -2 -5 -2l-2 -2h-2q-1 -1 -5 -3q-1 0 -3.5 -1t-3.5 -2l-1 -1q-61 -27 -133 -32h-1h-8h-1h-9
q-63 0 -117 19h-1q-2 1 -5.5 2.5t-5.5 1.5l-15 6q-20 7 -36 18q-46 25 -82 62q-52 52 -80 118q-23 55 -27 107q-2 24 -2 37v19q5 69 29 126q29 67 80 118q53 53 118 79q65 29 144 29h9h1h8h1q6 0 9 -1q66 -5 125 -31q0 -1 1 -1l6 -3h1v0v-137q-19 17 -50 32q-24 11 -46 17
q-2 0 -3 1h-3q-1 1 -4 1q-1 0 -2 1q-2 1 -6.5 1t-6.5 1h-2l-2 1h-2h-2q-3 0 -4 1h-3h-6q-1 0 -3 1h-3h-4h-2h-7q-72 0 -131 -36q-1 -1 -5 -3q-25 -16 -44 -36q-1 -1 -4 -3.5t-5 -5t-4 -4.5q0 -1 -1 -1q-5 -6 -13 -18l-2 -2l-6 -9q-2 -2 -2 -4q-22 -35 -31 -76q-1 -1 -1 -2
q-4 -20 -5 -30v-11q-1 -5 -1 -14q0 -8 1 -13q2 -29 9 -56q18 -64 65 -111q75 -75 180 -75h7q2 0 3 1h4h3h3h5q0 1 2 1h4h2q4 0 11.5 2t10.5 2q1 0 2 1q3 0 4 1h3q1 1 3 1q1 1 4 1l2 1q24 7 41 16h1v137h-140v105h256z" />
    <glyph glyph-name="h" unicode="h" horiz-adv-x="683" 
d="M606 742v-742h-116v320h-296v-320h-116v742h116v-317h296v317h116z" />
    <glyph glyph-name="i" unicode="i" horiz-adv-x="270" 
d="M194 0h-116v742h116v-742z" />
    <glyph glyph-name="j" unicode="j" horiz-adv-x="420" 
d="M351 742v-490q0 -121 -84 -192q-71 -60 -180 -60q-25 0 -47 3v119q22 -6 47 -6q65 0 106 33q41 35 41 103v490h117z" />
    <glyph glyph-name="k" unicode="k" horiz-adv-x="679" 
d="M633 0h-145l-294 336v-336h-116v742h116v-306l238 306h146l-272 -357z" />
    <glyph glyph-name="l" unicode="l" horiz-adv-x="511" 
d="M504 105v-105h-311h-115v742h116v-637h310z" />
    <glyph glyph-name="m" unicode="m" horiz-adv-x="853" 
d="M776 0h-117v394l-232 -346l-233 346v-394h-116v776l349 -520l349 520v-776z" />
    <glyph glyph-name="n" unicode="n" horiz-adv-x="738" 
d="M661 -34l-467 511v-477h-116v777l466 -511v476h117v-776z" />
    <glyph glyph-name="o" unicode="o" horiz-adv-x="849" 
d="M425 0q-75 0 -144 29q-66 28 -118 80t-80 118q-29 69 -29 144t29 145q28 64 80 118q51 50 118 79q69 29 144 29t145 -29q66 -29 118 -79q50 -52 79 -118q29 -70 29 -145t-29 -144q-29 -67 -79 -118q-54 -52 -118 -80q-70 -29 -145 -29zM425 626q-105 0 -180 -75t-75 -180
t75 -180t180 -75t180 75t75 180t-75 180t-180 75z" />
    <glyph glyph-name="p" unicode="p" horiz-adv-x="561" 
d="M78 742h98h122q119 0 185 -73q60 -66 60 -172q0 -107 -60 -172q-65 -74 -185 -74h-104v-251h-116v742zM406 395q33 37 33 102q0 64 -33 101q-37 40 -108 40h-104v-282h104q72 0 108 39z" />
    <glyph glyph-name="q" unicode="q" horiz-adv-x="846" 
d="M760 227q-29 -67 -79 -118l-8 -8l67 -88l-84 -63l-68 91q-4 -2 -12.5 -6t-12.5 -6q-70 -29 -145 -29t-144 29q-66 28 -118 80t-80 118q-29 69 -29 144t29 145q29 67 80 118q51 50 118 79q65 29 144 29q78 0 145 -29q69 -30 118 -79t79 -118q29 -67 29 -145
q0 -79 -29 -144zM418 116q51 0 99 20l-52 69l84 63l54 -73q70 75 70 176q0 105 -75 180t-180 75t-180 -75t-75 -180t75 -180t180 -75z" />
    <glyph glyph-name="r" unicode="r" horiz-adv-x="641" 
d="M397 268l200 -268h-131l-187 251h-85v-251h-116v742h98h122q120 0 185 -74q60 -66 60 -172q0 -105 -60 -171q-35 -39 -86 -57zM194 355h104q72 0 107 40q33 35 33 101q0 67 -33 102q-34 39 -107 39h-104v-282z" />
    <glyph glyph-name="s" unicode="s" horiz-adv-x="528" 
d="M469 253q17 -53 2 -104q-16 -54 -61 -93.5t-106 -51.5q-20 -4 -45 -4q-47 0 -88 16q-72 29 -123 95l92 72q32 -43 73 -58q34 -14 68 -6q28 5 49.5 22t28.5 40q12 40 -34 84q-49 46 -91 88l-91 86q-42 40 -57 89q-16 49 -2 94q13 48 55 83q39 33 89 42q54 12 110 -8
q58 -23 101 -75l-91 -73q-43 52 -98 42q-20 -4 -35 -15.5t-19 -27.5q-9 -31 28 -67l124 -119q24 -24 56 -54q48 -44 65 -97z" />
    <glyph glyph-name="t" unicode="t" horiz-adv-x="584" 
d="M555 742v-104h-204v-638h-117v638h-204v104h525z" />
    <glyph glyph-name="u" unicode="u" horiz-adv-x="691" 
d="M346 0q-108 0 -184 59q-43 33 -66 80q-25 50 -25 113v490h116v-490q0 -66 46 -101q45 -35 113 -35q67 0 113 35q45 35 45 101v490h117v-490q0 -60 -25 -113q-24 -47 -66 -80q-76 -59 -184 -59z" />
    <glyph glyph-name="v" unicode="v" horiz-adv-x="708" 
d="M153 742l209 -489l195 489h126l-318 -775l-340 775h128z" />
    <glyph glyph-name="w" unicode="w" horiz-adv-x="1121" 
d="M1080 742l-319 -775l-196 447l-184 -447l-340 775h128l209 -489l123 308l60 153l65 -151l132 -310l195 489h127z" />
    <glyph glyph-name="x" unicode="x" horiz-adv-x="801" 
d="M744 0h-146l-198 290l-197 -290h-146l270 397l-235 345h146l162 -238l163 238h146l-236 -345z" />
    <glyph glyph-name="y" unicode="y" horiz-adv-x="688" 
d="M663 742l-260 -354v-388h-116v388l-261 354h125l194 -264l194 264h124z" />
    <glyph glyph-name="z" unicode="z" horiz-adv-x="705" 
d="M629 0h-578l381 626h-298v116h505l-381 -626h371v-116z" />
    <glyph glyph-name="braceleft" unicode="{" horiz-adv-x="360" 
d="M303 -128q-85 0 -125 20q-40 19 -60 55q-22 39 -22 92v249q0 5 -2 7q-7 7 -21 11q-10 4 -22.5 6t-19.5 2h-7v111q36 0 56 7q10 4 14 8q2 2 2 8v253q0 52 20 90q19 37 59 57t128 20v-112q-62 0 -79 -8q-16 -6 -16 -47v-253q0 -46 -30 -81q30 -33 30 -79v-249q0 -38 18 -47
t77 -9v-111z" />
    <glyph glyph-name="bar" unicode="|" horiz-adv-x="249" 
d="M174 798v-966h-96v966h96z" />
    <glyph glyph-name="braceright" unicode="}" horiz-adv-x="360" 
d="M58 -128v111q60 0 77 9q19 10 19 47v249q0 47 29 79q-29 34 -29 81v253q0 40 -17 47q-16 8 -79 8v112q88 0 128 -20t59 -57q20 -38 20 -90v-253q0 -6 2 -8q3 -3 14 -8q20 -7 56 -7v-111q-25 0 -49 -8q-8 -3 -21 -11q-2 -2 -2 -7v-249q0 -55 -21 -92t-61 -55
q-40 -20 -125 -20z" />
    <glyph glyph-name="asciitilde" unicode="~" horiz-adv-x="701" 
d="M163 282h-113v23q0 42 21 78q17 29 53 54q54 33 125 31q67 0 133 -32q81 -40 132 -9q21 14 21 43v23h114v-23q0 -46 -21 -82q-20 -35 -55 -57q-48 -30 -112.5 -29t-128.5 32q-41 21 -84.5 21t-63.5 -15q-21 -12 -21 -35v-23z" />
    <glyph glyph-name="exclamdown" unicode="&#xa1;" horiz-adv-x="277" 
d="M139 431q-28 0 -47.5 19.5t-19.5 46.5q0 28 19.5 47.5t47.5 19.5q27 0 46.5 -19.5t19.5 -47.5q0 -27 -19.5 -46.5t-46.5 -19.5zM139 370q30 0 54 13l24 -601h-157l24 600q22 -12 55 -12z" />
    <glyph glyph-name="cent" unicode="&#xa2;" horiz-adv-x="467" 
d="M391 221l46 -68q-4 -3 -28 -16q-53 -25 -111 -27v-70h-70v78q-18 4 -37 12q-49 22 -83 56q-36 37 -56 83q-21 49 -21 102q0 54 21 102q20 47 56 83q37 37 83 56q19 8 37 12v78h70v-70q55 0 108 -25l-36 -74q-33 16 -72 18v-359q40 2 74 18q17 10 19 11zM228 204v335
q-34 -13 -62 -41q-53 -53 -53 -127t53 -127q26 -26 62 -40z" />
    <glyph glyph-name="sterling" unicode="&#xa3;" horiz-adv-x="585" 
d="M529 117v-117h-467l21 74q33 118 38 202h-73v105h66q-1 4 -2.5 13t-2.5 13q-13 69 -13 106q0 64 29 115.5t81 82.5q53 31 115 31.5t113 -28.5q43 -25 68 -68t25 -102h-116q0 50 -36 69q-24 13 -54 12t-56 -15q-52 -30 -52 -97q0 -25 10 -83q8 -40 9 -49h140v-105h-134
q-3 -69 -24 -159h315z" />
    <glyph glyph-name="currency" unicode="&#xa4;" horiz-adv-x="615" 
d="M506 287q-10 -21 -21 -38l64 -64l-56 -55l-63 63q-19 -13 -38 -20q-38 -17 -84 -17q-47 0 -84 17q-17 6 -38 20l-64 -63l-56 55l64 64q-11 17 -21 38q-17 42 -17 84q0 44 17 84q10 21 21 38l-64 64l56 56l64 -64q20 13 38 21q40 17 84 17q43 0 83 -17q21 -9 39 -21l63 64
l56 -56l-64 -64q13 -17 21 -38q17 -40 17 -84q0 -42 -17 -84zM308 232q38 0 72 20q15 10 26 21q14 13 21 26q20 34 20 72q0 39 -20 73q-10 15 -20 25l-1 1q-11 11 -26 21q-34 20 -72 20q-39 0 -73 -20q-15 -10 -26 -21t-21 -26q-20 -34 -20 -73q0 -38 20 -72q10 -16 21 -26
l1 -1q14 -14 25 -20q34 -20 73 -20z" />
    <glyph glyph-name="yen" unicode="&#xa5;" horiz-adv-x="748" 
d="M478 411h146v-100h-192v-57h192v-100h-192v-154h-116v154h-192v100h192v57h-192v100h146l-238 331h136l206 -286l206 286h136z" />
    <glyph glyph-name="brokenbar" unicode="&#xa6;" horiz-adv-x="249" 
d="M174 195v-363h-96v363h96zM174 798v-364h-96v364h96z" />
    <glyph glyph-name="section" unicode="&#xa7;" horiz-adv-x="580" 
d="M528 100q15 -60 -13 -122q-25 -57 -81 -94q-66 -43 -146 -43q-17 0 -26 1q-104 9 -210 86l69 94q78 -57 151 -63q55 -6 97 22q26 17 38.5 42.5t6.5 49.5q-13 58 -120 71q-79 11 -128 48q-51 37 -66 95q-14 54 7 107q12 34 39 63q-51 39 -66 96q-14 54 4 104q18 52 62 85
q52 40 122 40h1q71 0 151 -46l-59 -101q-50 30 -92 30h-1q-30 0 -51 -16q-34 -26 -24 -65q14 -51 103 -62q90 -11 147 -54q58 -42 73 -107q14 -62 -14 -122q-12 -26 -29 -47q43 -38 55 -92zM213 317q12 -46 96 -57q27 -3 57 -11q19 16 30 38q11 24 6 47q-6 25 -30 41
q-79 49 -131 10q-17 -12 -24.5 -31.5t-3.5 -36.5z" />
    <glyph glyph-name="dieresis" unicode="&#xa8;" horiz-adv-x="472" 
d="M208 603q0 -29 -20.5 -49.5t-49.5 -20.5t-49.5 20.5t-20.5 49.5t20.5 49.5t49.5 20.5q28 0 49 -20.5t21 -49.5zM405 603q0 -29 -20.5 -49.5t-49.5 -20.5t-49 20.5t-20 49.5t20.5 49.5t48.5 20.5q29 0 49.5 -20.5t20.5 -49.5z" />
    <glyph glyph-name="copyright" unicode="&#xa9;" horiz-adv-x="857" 
d="M429 -4q-77 0 -146 30q-67 28 -119 80t-81 119q-29 72 -29 146q0 76 29 146q29 68 81 119q51 52 119 81q70 29 146 29t146 -29q68 -29 119 -81q53 -51 80 -119q30 -69 30 -146q0 -75 -30 -146q-27 -66 -80 -119q-51 -52 -119 -80q-69 -30 -146 -30zM429 666
q-123 0 -209 -86q-86 -88 -86 -209q0 -122 86 -208q87 -87 209 -87t209 87q86 86 86 208q0 121 -86 209q-86 86 -209 86zM553 284v-91q-14 -9 -34 -18q-40 -17 -83 -17t-83 17q-39 17 -68 46q-30 30 -45 67q-17 38 -17 83q0 46 17 83q13 35 45 68q29 29 68 46q38 16 83 16
t83 -16l5 -2.5t4 -2.5v-78q-41 33 -92 33q-59 0 -104 -43q-42 -44 -42 -104q0 -61 42 -103q43 -43 104 -43q62 0 103 43q7 6 14 16z" />
    <glyph glyph-name="ordfeminine" unicode="&#xaa;" horiz-adv-x="323" 
d="M241 698q12 -20 12 -47v-189h-49h-65q-41 0 -65 26q-21 22 -21 60q0 36 21 60q26 26 65 26h61v17q0 22 -17 32q-13 7 -30.5 6.5t-31.5 -8.5q-8 -4 -13 -12l-44 29q11 17 30 28q26 16 57 16q31 1 58 -13q21 -13 32 -31zM109 520q9 -11 30 -11h61v77h-61q-21 0 -30 -10
t-9 -28t9 -28z" />
    <glyph glyph-name="guillemotleft" unicode="&#xab;" horiz-adv-x="602" 
d="M328 32h-115l-176 236l175 233h115l-175 -233zM538 32h-115l-176 236l175 233h115l-175 -233z" />
    <glyph glyph-name="logicalnot" unicode="&#xac;" horiz-adv-x="579" 
d="M502 235h-100v172h-392v100h492v-272z" />
    <glyph glyph-name="registered" unicode="&#xae;" horiz-adv-x="857" 
d="M429 -4q-77 0 -146 30q-67 28 -119 80t-81 119q-29 72 -29 146q0 76 29 146q29 68 81 119q51 52 119 81q70 29 146 29t146 -29q68 -29 119 -81q53 -51 80 -119q30 -69 30 -146q0 -75 -30 -146q-27 -66 -80 -119q-51 -52 -119 -80q-69 -30 -146 -30zM429 666
q-123 0 -209 -86q-86 -88 -86 -209q0 -122 86 -208q87 -87 209 -87t209 87q86 86 86 208q0 121 -86 209q-86 86 -209 86zM474 312l114 -154h-75l-107 144h-49v-144h-67v426h57h69q69 0 107 -42q35 -38 35 -99t-35 -99q-20 -22 -49 -32zM357 362h59q42 0 62 23q19 20 19 58
t-19 58q-20 23 -62 23h-59v-162z" />
    <glyph glyph-name="degree" unicode="&#xb0;" horiz-adv-x="357" 
d="M266 761q37 -35 37 -88q0 -51 -37 -88q-36 -36 -88 -36q-50 0 -88 36q-36 38 -36 88q0 52 36 88q37 37 88 37q53 0 88 -37zM178 610q26 0 44.5 18.5t18.5 44.5t-18.5 44.5t-44.5 18.5t-44.5 -18.5t-18.5 -44.5t18.5 -44.5t44.5 -18.5z" />
    <glyph glyph-name="plusminus" unicode="&#xb1;" horiz-adv-x="543" 
d="M503 446v-100h-181v-181h-100v181h-181v100h181v181h100v-181h181zM503 0h-462v100h462v-100z" />
    <glyph glyph-name="twosuperior" unicode="&#xb2;" horiz-adv-x="352" 
d="M157 548h133v-55h-245l34 44l129 172q18 24 19 40q3 11 -3 21q-14 22 -44 17q-17 -3 -27 -13q-13 -11 -19 -33l-49 29q11 27 30 45q24 21 56 27q31 5 58.5 -7t41.5 -36q16 -26 11 -58q-4 -31 -29 -65z" />
    <glyph glyph-name="threesuperior" unicode="&#xb3;" horiz-adv-x="351" 
d="M217 562q18 13 25.5 34.5t0.5 40.5q-6 17 -23 28q-22 13 -59 13h-47l61 110h-101v55h193l-63 -114q22 -5 44 -17q35 -21 47 -58q12 -34 -1 -74q-12 -37 -44 -61q-35 -26 -80 -26h-8q-55 3 -110 43l31 44q81 -56 134 -18z" />
    <glyph glyph-name="acute" unicode="&#xb4;" horiz-adv-x="225" 
d="M44 619l49 123h110l-86 -123h-73z" />
    <glyph glyph-name="mu" unicode="&#xb5;" horiz-adv-x="512" 
d="M473 533v-533h-84v30q-48 -30 -114 -30q-65 0 -114 30v-182h-83v685h83v-352q0 -46 33 -73q33 -25 81 -25q50 0 81 25q33 26 33 73v352h84z" />
    <glyph glyph-name="paragraph" unicode="&#xb6;" horiz-adv-x="597" 
d="M547 742l-70 -100v-742h-100v742h-68v-742h-100v516h-10q-78 0 -123 49q-40 45 -40 114t40 114q45 49 123 49h30h318z" />
    <glyph glyph-name="periodcentered" unicode="&#xb7;" horiz-adv-x="249" 
d="M195 371q0 -29 -20.5 -49.5t-49.5 -20.5t-49.5 20.5t-20.5 49.5t20.5 49.5t49.5 20.5t49.5 -20.5t20.5 -49.5z" />
    <glyph glyph-name="cedilla" unicode="&#xb8;" horiz-adv-x="314" 
d="M216 -203q-26 -15 -57 -15h-1q-7 0 -25 2q-50 9 -101 49l-8 6l40 52l7 -6q43 -30 74 -36q5 -1 14 -1q12 0 22 5q13 10 10 25q-1 10 -12 19q-16 13 -41 17l-52 9l55 77h82l-26 -36q15 -8 25 -17q28 -23 34 -57q5 -27 -6 -52.5t-34 -40.5z" />
    <glyph glyph-name="onesuperior" unicode="&#xb9;" horiz-adv-x="208" 
d="M132 493h-55v241l-43 -33l-33 44l131 98v-350z" />
    <glyph glyph-name="ordmasculine" unicode="&#xba;" horiz-adv-x="384" 
d="M289 694q41 -39 41 -97q0 -59 -41 -98q-40 -40 -97 -40q-58 0 -98 40t-40 98q0 57 40 97q39 41 98 41q58 0 97 -41zM192 516q34 0 57.5 23.5t23.5 57.5t-23.5 57.5t-57.5 23.5t-57.5 -23.5t-23.5 -57.5t23.5 -57.5t57.5 -23.5z" />
    <glyph glyph-name="guillemotright" unicode="&#xbb;" horiz-adv-x="602" 
d="M274 32l176 236l-176 233h115l176 -233l-176 -236h-115zM64 32l176 236l-176 233h115l176 -233l-176 -236h-115z" />
    <glyph glyph-name="onequarter" unicode="&#xbc;" horiz-adv-x="686" 
d="M136 634l-43 -32l-33 44l131 97v-350h-55v241zM485 742h96l-405 -742h-96zM589 115h32v-54h-32v-61h-55v61h-174l229 305v-251zM534 115v87l-65 -87h65z" />
    <glyph glyph-name="onehalf" unicode="&#xbd;" horiz-adv-x="702" 
d="M484 742h96l-405 -742h-96zM135 634l-43 -32l-33 44l131 97v-350h-55v241zM512 55h133v-55h-245l34 44l129 172q18 24 19 40q2 12 -3 21q-14 22 -44 17q-17 -3 -28 -13q-14 -14 -18 -33l-49 29q10 27 30 45q24 21 56 27q31 5 58.5 -7t41.5 -36q16 -26 11 -58
q-4 -31 -29 -65q-13 -17 -27 -35.5t-34 -45.5t-35 -47z" />
    <glyph glyph-name="threequarters" unicode="&#xbe;" horiz-adv-x="698" 
d="M535 742h96l-405 -742h-96zM216 462q18 13 25.5 34t1.5 40q-6 17 -24 28q-22 14 -59 13h-46l60 111h-101v54h193l-62 -114q28 -7 44 -17q34 -21 46 -57q12 -37 0 -74q-14 -40 -45 -62q-35 -26 -79 -26h-9q-51 3 -110 43l32 45q80 -58 133 -18zM598 366v-251h33v-54h-33
v-61h-55v61h-173zM543 115v87l-64 -87h64z" />
    <glyph glyph-name="questiondown" unicode="&#xbf;" horiz-adv-x="588" 
d="M321 430q-28 0 -47.5 19.5t-19.5 47.5t19.5 47.5t47.5 19.5t47.5 -19.5t19.5 -47.5t-19.5 -47.5t-47.5 -19.5zM84 -129q-45 60 -30 140q15 79 94 166q5 6 17 18q37 37 60 78q29 53 32 110q24 -14 64 -14q35 0 59 14q-3 -83 -46 -160q-29 -52 -77 -100l-14 -14
q-46 -51 -64 -99q-16 -49 7 -79q19 -26 59 -35q17 -5 41 -5q21 0 44 5q37 11 57 34q26 28 28 74h123q-2 -78 -50 -136q-46 -55 -122 -75q-36 -11 -80 -11q-62 0 -116.5 24t-85.5 65z" />
    <glyph glyph-name="Agrave" unicode="&#xc0;" 
d="M435 832h-70l-104 117h104zM543 0l-63 159h-264l-63 -159h-128l323 776l322 -776h-127zM258 263h180l-90 226z" />
    <glyph glyph-name="Aacute" unicode="&#xc1;" 
d="M293 832l70 117h104l-104 -117h-70zM543 0l-63 159h-264l-63 -159h-128l323 776l322 -776h-127zM258 263h180l-90 226z" />
    <glyph glyph-name="Acircumflex" unicode="&#xc2;" 
d="M448 832l-40 -34l-59 71l-64 -71l-39 35l105 116zM543 0l-63 159h-264l-63 -159h-128l323 776l322 -776h-127zM258 263h180l-90 226z" />
    <glyph glyph-name="Atilde" unicode="&#xc3;" 
d="M481 924v-13q0 -21 -9 -37q-8 -15 -25 -26q-20 -13 -49 -13t-59 14q-17 9 -37 9q-17 0 -26 -6q-8 -5 -8 -14v-12h-55v12q0 18 10 36q9 15 24 24q22 15 55 15h1q31 -1 60 -15q18 -9 34 -9q13 0 21 5q9 6 9 17v13h54zM543 0l-63 159h-264l-63 -159h-128l323 776l322 -776
h-127zM258 263h180l-90 226z" />
    <glyph glyph-name="Adieresis" unicode="&#xc4;" 
d="M325 898q0 -21 -15 -36t-36 -15t-36 15t-15 36t15 36t36 15t36 -15t15 -36zM472 898q0 -21 -15 -36t-36 -15t-36 15t-15 36t15 36t36 15t36 -15t15 -36zM543 0l-63 159h-264l-63 -159h-128l323 776l322 -776h-127zM258 263h180l-90 226z" />
    <glyph glyph-name="Aring" unicode="&#xc5;" 
d="M347 822q-32 0 -54 22.5t-22 54.5q0 31 22.5 53.5t53.5 22.5q32 0 54.5 -22t22.5 -54t-22.5 -54.5t-54.5 -22.5zM347 929q-12 0 -21 -9t-9 -21q0 -13 9 -22t21 -9q13 0 22 9t9 22q0 12 -9 21t-22 9zM543 0l-63 159h-264l-63 -159h-128l323 776l322 -776h-127zM258 263
h180l-90 226z" />
    <glyph glyph-name="AE" unicode="&#xc6;" horiz-adv-x="949" 
d="M626 105h298v-105h-382h1l-63 159h-264l-63 -159h-128l323 776l14 -34h299v-104h-256l82 -198h245v-105h-202zM258 263h180l-90 226z" />
    <glyph glyph-name="Ccedilla" unicode="&#xc7;" horiz-adv-x="677" 
d="M598 191q13 13 25 28v-158q-31 -20 -60 -32q-63 -26 -129 -29l-26 -36q18 -10 25 -17q27 -21 35 -57q5 -27 -6 -52.5t-35 -40.5t-57 -15q-9 0 -25 2q-51 10 -102 49l-8 6l40 52l8 -6q41 -30 73 -36q5 -1 14 -1q14 0 22 5q14 9 11 25q-1 9 -13 19q-14 12 -40 17l-52 9
l59 82q-44 8 -83 24q-66 28 -118 80t-80 118q-29 69 -29 144t29 145q29 67 80 118q53 53 118 79q65 29 144 29q78 0 145 -29q2 -1 8 -3.5t8 -3.5v-137q-69 57 -161 57q-107 0 -180 -75q-75 -75 -75 -180t75 -180t180 -75t180 75z" />
    <glyph glyph-name="Egrave" unicode="&#xc8;" horiz-adv-x="582" 
d="M194 638h329v104h-330h-115v-742h115h330v105h-329v230h271v105h-271v198zM399 822h-70l-105 117h105z" />
    <glyph glyph-name="Eacute" unicode="&#xc9;" horiz-adv-x="582" 
d="M194 638v-198h271v-105h-271v-230h329v-105h-330h-115v742h115h330v-104h-329zM224 822l70 117h105l-105 -117h-70z" />
    <glyph glyph-name="Ecircumflex" unicode="&#xca;" horiz-adv-x="582" 
d="M194 638v-198h271v-105h-271v-230h329v-105h-330h-115v742h115h330v-104h-329zM402 852l-40 -34l-60 71l-63 -71l-39 35l104 116z" />
    <glyph glyph-name="Edieresis" unicode="&#xcb;" horiz-adv-x="582" 
d="M194 638v-198h271v-105h-271v-230h329v-105h-330h-115v742h115h330v-104h-329zM278 888q0 -21 -15 -36t-36 -15t-36 15t-15 36t15 36t36 15t36 -15t15 -36zM425 888q0 -21 -15 -36t-36 -15t-36 15t-15 36t15 36t36 15t36 -15t15 -36z" />
    <glyph glyph-name="Igrave" unicode="&#xcc;" horiz-adv-x="285" 
d="M201 0v742h-116v-742h116zM190 822h-69l-105 117h105z" />
    <glyph glyph-name="Iacute" unicode="&#xcd;" horiz-adv-x="285" 
d="M84 0v742h116v-742h-116zM95 822l70 117h104l-104 -117h-70z" />
    <glyph glyph-name="Icircumflex" unicode="&#xce;" horiz-adv-x="272" 
d="M79 0v742h116v-742h-116zM238 852l-40 -34l-59 71l-64 -71l-39 35l104 116z" />
    <glyph glyph-name="Idieresis" unicode="&#xcf;" horiz-adv-x="272" 
d="M79 0v742h116v-742h-116zM115 888q0 -21 -15 -36t-36 -15q-22 0 -37 15t-15 36t15 36t37 15q21 0 36 -15t15 -36zM262 888q0 -21 -15 -36t-36 -15q-22 0 -37 15t-15 36t15 36t37 15q21 0 36 -15t15 -36z" />
    <glyph glyph-name="Eth" unicode="&#xd0;" horiz-adv-x="742" 
d="M602 631q90 -99 90 -260t-90 -260q-49 -55 -119 -82q-73 -29 -162 -29h-137h-39v321h-67v100h67v321h116h60q92 0 162 -29q70 -27 119 -82zM516 189q60 66 60 182t-60 182q-66 73 -195 73h-60v-205h124v-100h-124v-205h60q128 0 195 73z" />
    <glyph glyph-name="Ntilde" unicode="&#xd1;" horiz-adv-x="738" 
d="M503 914v-13q0 -21 -9 -37q-8 -15 -25 -26q-20 -13 -49 -13t-59 14q-17 9 -37 9q-17 0 -26 -6q-8 -5 -8 -14v-12h-55v12q0 18 10 36q9 15 24 24q22 15 55 15h1q32 -2 60 -15q17 -9 34 -9q13 0 21 5q9 6 9 17v13h54zM661 -34l-467 511v-477h-116v777l466 -511v476h117
v-776z" />
    <glyph glyph-name="Ograve" unicode="&#xd2;" horiz-adv-x="849" 
d="M425 0q75 0 145 29q64 28 118 80q50 51 79 118q29 69 29 144t-29 145q-29 66 -79 118q-52 50 -118 79q-70 29 -145 29t-144 -29q-67 -29 -118 -79q-52 -54 -80 -118q-29 -70 -29 -145t29 -144q28 -66 80 -118t118 -80q69 -29 144 -29zM425 626q105 0 180 -75t75 -180
t-75 -180t-180 -75t-180 75t-75 180t75 180t180 75zM462 822h-69l-105 117h105z" />
    <glyph glyph-name="Oacute" unicode="&#xd3;" horiz-adv-x="849" 
d="M425 0q-75 0 -144 29q-66 28 -118 80t-80 118q-29 69 -29 144t29 145q28 64 80 118q51 50 118 79q69 29 144 29t145 -29q66 -29 118 -79q50 -52 79 -118q29 -70 29 -145t-29 -144q-29 -67 -79 -118q-54 -52 -118 -80q-70 -29 -145 -29zM425 626q-105 0 -180 -75t-75 -180
t75 -180t180 -75t180 75t75 180t-75 180t-180 75zM393 822l70 117h104l-104 -117h-70z" />
    <glyph glyph-name="Ocircumflex" unicode="&#xd4;" horiz-adv-x="849" 
d="M425 0q-75 0 -144 29q-66 28 -118 80t-80 118q-29 69 -29 144t29 145q28 64 80 118q51 50 118 79q69 29 144 29t145 -29q66 -29 118 -79q50 -52 79 -118q29 -70 29 -145t-29 -144q-29 -67 -79 -118q-54 -52 -118 -80q-70 -29 -145 -29zM425 626q-105 0 -180 -75t-75 -180
t75 -180t180 -75t180 75t75 180t-75 180t-180 75zM526 852l-40 -34l-59 71l-64 -71l-39 35l104 116z" />
    <glyph glyph-name="Otilde" unicode="&#xd5;" horiz-adv-x="849" 
d="M425 0q-75 0 -144 29q-66 28 -118 80t-80 118q-29 69 -29 144t29 145q28 64 80 118q51 50 118 79q69 29 144 29t145 -29q66 -29 118 -79q50 -52 79 -118q29 -70 29 -145t-29 -144q-29 -67 -79 -118q-54 -52 -118 -80q-70 -29 -145 -29zM425 626q-105 0 -180 -75t-75 -180
t75 -180t180 -75t180 75t75 180t-75 180t-180 75zM559 914v-13q0 -21 -9 -37q-8 -14 -25 -26q-20 -13 -50 -13q-28 0 -58 14q-17 9 -37 9q-17 0 -26 -6q-8 -5 -8 -14v-12h-55v12q0 20 10 36q7 14 24 24q22 15 55 15h1q32 -2 60 -15q16 -9 34 -9q13 0 21 5q9 6 9 17v13h54z
" />
    <glyph glyph-name="Odieresis" unicode="&#xd6;" horiz-adv-x="849" 
d="M425 0q-75 0 -144 29q-66 28 -118 80t-80 118q-29 69 -29 144t29 145q28 64 80 118q51 50 118 79q69 29 144 29t145 -29q66 -29 118 -79q50 -52 79 -118q29 -70 29 -145t-29 -144q-29 -67 -79 -118q-54 -52 -118 -80q-70 -29 -145 -29zM425 626q-105 0 -180 -75t-75 -180
t75 -180t180 -75t180 75t75 180t-75 180t-180 75zM403 888q0 -21 -15 -36t-36 -15q-22 0 -37 15t-15 36t15 36t37 15q21 0 36 -15t15 -36zM550 888q0 -21 -15 -36t-36 -15q-22 0 -37 15t-15 36t15 36t37 15q21 0 36 -15t15 -36z" />
    <glyph glyph-name="multiply" unicode="&#xd7;" horiz-adv-x="545" 
d="M341 371l144 -144l-34 -34l-34 -35l-144 145l-145 -145l-34 35l-34 34l144 144l-144 145l68 68l145 -145l144 145l34 -34l34 -34z" />
    <glyph glyph-name="Oslash" unicode="&#xd8;" horiz-adv-x="847" 
d="M766 516q29 -70 29 -145t-29 -144q-28 -67 -79 -118q-54 -52 -118 -80q-70 -29 -145 -29q-65 0 -128 23q-3 1 -8.5 3t-7.5 3q-26 12 -37 18l-67 -90h-116l108 146l-6 6q-52 52 -80 118q-29 69 -29 144t29 145q28 64 80 118q50 50 118 79q69 29 144 29q68 0 128 -22
q3 -1 8.5 -3.5t8.5 -3.5q21 -9 37 -18l66 90h116l-107 -146q4 -4 6 -5q50 -52 79 -118zM169 371q0 -100 69 -174l298 403q-26 12 -40 16q-38 10 -72 10q-105 0 -180 -75t-75 -180zM604 191q75 75 75 180q0 100 -68 174l-299 -403q20 -9 40 -15q36 -11 72 -11q105 0 180 75z
" />
    <glyph glyph-name="Ugrave" unicode="&#xd9;" horiz-adv-x="691" 
d="M346 0q108 0 184 59q42 33 66 80q25 53 25 113v490h-117v-490q0 -66 -45 -101q-46 -35 -113 -35q-68 0 -113 35q-46 35 -46 101v490h-116v-490q0 -63 25 -113q23 -47 66 -80q76 -59 184 -59zM433 822h-70l-104 117h104z" />
    <glyph glyph-name="Uacute" unicode="&#xda;" horiz-adv-x="691" 
d="M346 0q-108 0 -184 59q-43 33 -66 80q-25 50 -25 113v490h116v-490q0 -66 46 -101q45 -35 113 -35q67 0 113 35q45 35 45 101v490h117v-490q0 -60 -25 -113q-24 -47 -66 -80q-76 -59 -184 -59zM259 822l69 117h105l-105 -117h-69z" />
    <glyph glyph-name="Ucircumflex" unicode="&#xdb;" horiz-adv-x="691" 
d="M346 0q-108 0 -184 59q-43 33 -66 80q-25 50 -25 113v490h116v-490q0 -66 46 -101q45 -35 113 -35q67 0 113 35q45 35 45 101v490h117v-490q0 -60 -25 -113q-24 -47 -66 -80q-76 -59 -184 -59zM447 852l-40 -34l-59 71l-64 -71l-39 35l104 116z" />
    <glyph glyph-name="Udieresis" unicode="&#xdc;" horiz-adv-x="691" 
d="M346 0q-108 0 -184 59q-43 33 -66 80q-25 50 -25 113v490h116v-490q0 -66 46 -101q45 -35 113 -35q67 0 113 35q45 35 45 101v490h117v-490q0 -60 -25 -113q-24 -47 -66 -80q-76 -59 -184 -59zM323 888q0 -21 -15 -36t-36 -15t-36 15t-15 36t15 36t36 15t36 -15t15 -36z
M470 888q0 -21 -15 -36t-36 -15t-36 15t-15 36t15 36t36 15t36 -15t15 -36z" />
    <glyph glyph-name="Yacute" unicode="&#xdd;" horiz-adv-x="688" 
d="M663 742l-260 -354v-388h-116v388l-261 354h125l194 -264l194 264h124zM279 822l70 117h104l-104 -117h-70z" />
    <glyph glyph-name="Thorn" unicode="&#xde;" horiz-adv-x="568" 
d="M488 576q60 -68 60 -172q0 -106 -60 -172q-65 -74 -185 -74h-109v-158h-116v742h116v-92h109q118 0 185 -74zM411 302q33 37 33 102q0 64 -33 101q-36 40 -108 40h-109v-282h109q72 0 108 39z" />
    <glyph glyph-name="germandbls" unicode="&#xdf;" horiz-adv-x="611" 
d="M561 224q0 -47 -20 -87q-19 -41 -59 -73q-79 -64 -211 -64h-25v116h25q90 0 138 39q36 30 36 69q0 43 -38 73q-49 40 -139 40h-22v117h11q102 0 122 59q7 23 -2 48t-32 42q-27 20 -66 22.5t-62 -10.5q-23 -12 -23 -31v-584h-116v584q0 91 87 135q55 28 125 23
q69 -6 124 -45q53 -39 74 -100q21 -62 1 -121q-12 -37 -40 -67q54 -32 83 -81.5t29 -103.5z" />
    <glyph glyph-name="agrave" unicode="&#xe0;" 
d="M435 832h-70l-104 117h104zM543 0l-63 159h-264l-63 -159h-128l323 776l322 -776h-127zM258 263h180l-90 226z" />
    <glyph glyph-name="aacute" unicode="&#xe1;" 
d="M293 832l70 117h104l-104 -117h-70zM543 0l-63 159h-264l-63 -159h-128l323 776l322 -776h-127zM258 263h180l-90 226z" />
    <glyph glyph-name="acircumflex" unicode="&#xe2;" 
d="M448 832l-40 -34l-59 71l-64 -71l-39 35l105 116zM543 0l-63 159h-264l-63 -159h-128l323 776l322 -776h-127zM258 263h180l-90 226z" />
    <glyph glyph-name="atilde" unicode="&#xe3;" 
d="M481 924v-13q0 -21 -9 -37q-8 -15 -25 -26q-20 -13 -49 -13t-59 14q-17 9 -37 9q-17 0 -26 -6q-8 -5 -8 -14v-12h-55v12q0 18 10 36q9 15 24 24q22 15 55 15h1q31 -1 60 -15q18 -9 34 -9q13 0 21 5q9 6 9 17v13h54zM543 0l-63 159h-264l-63 -159h-128l323 776l322 -776
h-127zM258 263h180l-90 226z" />
    <glyph glyph-name="adieresis" unicode="&#xe4;" 
d="M325 898q0 -21 -15 -36t-36 -15t-36 15t-15 36t15 36t36 15t36 -15t15 -36zM472 898q0 -21 -15 -36t-36 -15t-36 15t-15 36t15 36t36 15t36 -15t15 -36zM543 0l-63 159h-264l-63 -159h-128l323 776l322 -776h-127zM258 263h180l-90 226z" />
    <glyph glyph-name="aring" unicode="&#xe5;" 
d="M347 822q-32 0 -54 22.5t-22 54.5q0 31 22.5 53.5t53.5 22.5q32 0 54.5 -22t22.5 -54t-22.5 -54.5t-54.5 -22.5zM347 929q-12 0 -21 -9t-9 -21q0 -13 9 -22t21 -9q13 0 22 9t9 22q0 12 -9 21t-22 9zM543 0l-63 159h-264l-63 -159h-128l323 776l322 -776h-127zM258 263
h180l-90 226z" />
    <glyph glyph-name="ae" unicode="&#xe6;" horiz-adv-x="949" 
d="M626 105h298v-105h-382h1l-63 159h-264l-63 -159h-128l323 776l14 -34h299v-104h-256l82 -198h245v-105h-202zM258 263h180l-90 226z" />
    <glyph glyph-name="ccedilla" unicode="&#xe7;" horiz-adv-x="677" 
d="M598 191q13 13 25 28v-158q-31 -20 -60 -32q-63 -26 -129 -29l-26 -36q18 -10 25 -17q27 -21 35 -57q5 -27 -6 -52.5t-35 -40.5t-57 -15q-9 0 -25 2q-51 10 -102 49l-8 6l40 52l8 -6q41 -30 73 -36q5 -1 14 -1q14 0 22 5q14 9 11 25q-1 9 -13 19q-14 12 -40 17l-52 9
l59 82q-44 8 -83 24q-66 28 -118 80t-80 118q-29 69 -29 144t29 145q29 67 80 118q53 53 118 79q65 29 144 29q78 0 145 -29q2 -1 8 -3.5t8 -3.5v-137q-69 57 -161 57q-107 0 -180 -75q-75 -75 -75 -180t75 -180t180 -75t180 75z" />
    <glyph glyph-name="egrave" unicode="&#xe8;" horiz-adv-x="582" 
d="M194 638h329v104h-330h-115v-742h115h330v105h-329v230h271v105h-271v198zM399 822h-70l-105 117h105z" />
    <glyph glyph-name="eacute" unicode="&#xe9;" horiz-adv-x="582" 
d="M194 638v-198h271v-105h-271v-230h329v-105h-330h-115v742h115h330v-104h-329zM224 822l70 117h105l-105 -117h-70z" />
    <glyph glyph-name="ecircumflex" unicode="&#xea;" horiz-adv-x="582" 
d="M194 638v-198h271v-105h-271v-230h329v-105h-330h-115v742h115h330v-104h-329zM402 852l-40 -34l-60 71l-63 -71l-39 35l104 116z" />
    <glyph glyph-name="edieresis" unicode="&#xeb;" horiz-adv-x="582" 
d="M194 638v-198h271v-105h-271v-230h329v-105h-330h-115v742h115h330v-104h-329zM278 888q0 -21 -15 -36t-36 -15t-36 15t-15 36t15 36t36 15t36 -15t15 -36zM425 888q0 -21 -15 -36t-36 -15t-36 15t-15 36t15 36t36 15t36 -15t15 -36z" />
    <glyph glyph-name="igrave" unicode="&#xec;" horiz-adv-x="285" 
d="M201 0v742h-116v-742h116zM190 822h-69l-105 117h105z" />
    <glyph glyph-name="iacute" unicode="&#xed;" horiz-adv-x="285" 
d="M84 0v742h116v-742h-116zM95 822l70 117h104l-104 -117h-70z" />
    <glyph glyph-name="icircumflex" unicode="&#xee;" horiz-adv-x="272" 
d="M79 0v742h116v-742h-116zM238 852l-40 -34l-59 71l-64 -71l-39 35l104 116z" />
    <glyph glyph-name="idieresis" unicode="&#xef;" horiz-adv-x="272" 
d="M79 0v742h116v-742h-116zM115 888q0 -21 -15 -36t-36 -15q-22 0 -37 15t-15 36t15 36t37 15q21 0 36 -15t15 -36zM262 888q0 -21 -15 -36t-36 -15q-22 0 -37 15t-15 36t15 36t37 15q21 0 36 -15t15 -36z" />
    <glyph glyph-name="eth" unicode="&#xf0;" horiz-adv-x="742" 
d="M602 631q90 -99 90 -260t-90 -260q-49 -55 -119 -82q-73 -29 -162 -29h-137h-39v321h-67v100h67v321h116h60q92 0 162 -29q70 -27 119 -82zM516 189q60 66 60 182t-60 182q-66 73 -195 73h-60v-205h124v-100h-124v-205h60q128 0 195 73z" />
    <glyph glyph-name="ntilde" unicode="&#xf1;" horiz-adv-x="738" 
d="M503 914v-13q0 -21 -9 -37q-8 -15 -25 -26q-20 -13 -49 -13t-59 14q-17 9 -37 9q-17 0 -26 -6q-8 -5 -8 -14v-12h-55v12q0 18 10 36q9 15 24 24q22 15 55 15h1q32 -2 60 -15q17 -9 34 -9q13 0 21 5q9 6 9 17v13h54zM661 -34l-467 511v-477h-116v777l466 -511v476h117
v-776z" />
    <glyph glyph-name="ograve" unicode="&#xf2;" horiz-adv-x="849" 
d="M425 0q75 0 145 29q64 28 118 80q50 51 79 118q29 69 29 144t-29 145q-29 66 -79 118q-52 50 -118 79q-70 29 -145 29t-144 -29q-67 -29 -118 -79q-52 -54 -80 -118q-29 -70 -29 -145t29 -144q28 -66 80 -118t118 -80q69 -29 144 -29zM425 626q105 0 180 -75t75 -180
t-75 -180t-180 -75t-180 75t-75 180t75 180t180 75zM462 822h-69l-105 117h105z" />
    <glyph glyph-name="oacute" unicode="&#xf3;" horiz-adv-x="849" 
d="M425 0q-75 0 -144 29q-66 28 -118 80t-80 118q-29 69 -29 144t29 145q28 64 80 118q51 50 118 79q69 29 144 29t145 -29q66 -29 118 -79q50 -52 79 -118q29 -70 29 -145t-29 -144q-29 -67 -79 -118q-54 -52 -118 -80q-70 -29 -145 -29zM425 626q-105 0 -180 -75t-75 -180
t75 -180t180 -75t180 75t75 180t-75 180t-180 75zM393 822l70 117h104l-104 -117h-70z" />
    <glyph glyph-name="ocircumflex" unicode="&#xf4;" horiz-adv-x="849" 
d="M425 0q-75 0 -144 29q-66 28 -118 80t-80 118q-29 69 -29 144t29 145q28 64 80 118q51 50 118 79q69 29 144 29t145 -29q66 -29 118 -79q50 -52 79 -118q29 -70 29 -145t-29 -144q-29 -67 -79 -118q-54 -52 -118 -80q-70 -29 -145 -29zM425 626q-105 0 -180 -75t-75 -180
t75 -180t180 -75t180 75t75 180t-75 180t-180 75zM526 852l-40 -34l-59 71l-64 -71l-39 35l104 116z" />
    <glyph glyph-name="otilde" unicode="&#xf5;" horiz-adv-x="849" 
d="M425 0q-75 0 -144 29q-66 28 -118 80t-80 118q-29 69 -29 144t29 145q28 64 80 118q51 50 118 79q69 29 144 29t145 -29q66 -29 118 -79q50 -52 79 -118q29 -70 29 -145t-29 -144q-29 -67 -79 -118q-54 -52 -118 -80q-70 -29 -145 -29zM425 626q-105 0 -180 -75t-75 -180
t75 -180t180 -75t180 75t75 180t-75 180t-180 75zM559 914v-13q0 -21 -9 -37q-8 -14 -25 -26q-20 -13 -50 -13q-28 0 -58 14q-17 9 -37 9q-17 0 -26 -6q-8 -5 -8 -14v-12h-55v12q0 20 10 36q7 14 24 24q22 15 55 15h1q32 -2 60 -15q16 -9 34 -9q13 0 21 5q9 6 9 17v13h54z
" />
    <glyph glyph-name="odieresis" unicode="&#xf6;" horiz-adv-x="849" 
d="M425 0q-75 0 -144 29q-66 28 -118 80t-80 118q-29 69 -29 144t29 145q28 64 80 118q51 50 118 79q69 29 144 29t145 -29q66 -29 118 -79q50 -52 79 -118q29 -70 29 -145t-29 -144q-29 -67 -79 -118q-54 -52 -118 -80q-70 -29 -145 -29zM425 626q-105 0 -180 -75t-75 -180
t75 -180t180 -75t180 75t75 180t-75 180t-180 75zM403 888q0 -21 -15 -36t-36 -15q-22 0 -37 15t-15 36t15 36t37 15q21 0 36 -15t15 -36zM550 888q0 -21 -15 -36t-36 -15q-22 0 -37 15t-15 36t15 36t37 15q21 0 36 -15t15 -36z" />
    <glyph glyph-name="divide" unicode="&#xf7;" horiz-adv-x="630" 
d="M617 325h-603v92h603v-92zM385 191q0 -29 -20.5 -49.5t-49.5 -20.5t-49.5 20.5t-20.5 49.5t20.5 49.5t49.5 20.5t49.5 -20.5t20.5 -49.5zM385 551q0 -29 -20.5 -49.5t-49.5 -20.5t-49.5 20.5t-20.5 49.5t20.5 49.5t49.5 20.5t49.5 -20.5t20.5 -49.5z" />
    <glyph glyph-name="oslash" unicode="&#xf8;" horiz-adv-x="847" 
d="M766 516q29 -70 29 -145t-29 -144q-28 -67 -79 -118q-54 -52 -118 -80q-70 -29 -145 -29q-65 0 -128 23q-3 1 -8.5 3t-7.5 3q-26 12 -37 18l-67 -90h-116l108 146l-6 6q-52 52 -80 118q-29 69 -29 144t29 145q28 64 80 118q50 50 118 79q69 29 144 29q68 0 128 -22
q3 -1 8.5 -3.5t8.5 -3.5q21 -9 37 -18l66 90h116l-107 -146q4 -4 6 -5q50 -52 79 -118zM169 371q0 -100 69 -174l298 403q-26 12 -40 16q-38 10 -72 10q-105 0 -180 -75t-75 -180zM604 191q75 75 75 180q0 100 -68 174l-299 -403q20 -9 40 -15q36 -11 72 -11q105 0 180 75z
" />
    <glyph glyph-name="ugrave" unicode="&#xf9;" horiz-adv-x="691" 
d="M346 0q108 0 184 59q42 33 66 80q25 53 25 113v490h-117v-490q0 -66 -45 -101q-46 -35 -113 -35q-68 0 -113 35q-46 35 -46 101v490h-116v-490q0 -63 25 -113q23 -47 66 -80q76 -59 184 -59zM433 822h-70l-104 117h104z" />
    <glyph glyph-name="uacute" unicode="&#xfa;" horiz-adv-x="691" 
d="M346 0q-108 0 -184 59q-43 33 -66 80q-25 50 -25 113v490h116v-490q0 -66 46 -101q45 -35 113 -35q67 0 113 35q45 35 45 101v490h117v-490q0 -60 -25 -113q-24 -47 -66 -80q-76 -59 -184 -59zM259 822l69 117h105l-105 -117h-69z" />
    <glyph glyph-name="ucircumflex" unicode="&#xfb;" horiz-adv-x="691" 
d="M346 0q-108 0 -184 59q-43 33 -66 80q-25 50 -25 113v490h116v-490q0 -66 46 -101q45 -35 113 -35q67 0 113 35q45 35 45 101v490h117v-490q0 -60 -25 -113q-24 -47 -66 -80q-76 -59 -184 -59zM447 852l-40 -34l-59 71l-64 -71l-39 35l104 116z" />
    <glyph glyph-name="udieresis" unicode="&#xfc;" horiz-adv-x="691" 
d="M346 0q-108 0 -184 59q-43 33 -66 80q-25 50 -25 113v490h116v-490q0 -66 46 -101q45 -35 113 -35q67 0 113 35q45 35 45 101v490h117v-490q0 -60 -25 -113q-24 -47 -66 -80q-76 -59 -184 -59zM323 888q0 -21 -15 -36t-36 -15t-36 15t-15 36t15 36t36 15t36 -15t15 -36z
M470 888q0 -21 -15 -36t-36 -15t-36 15t-15 36t15 36t36 15t36 -15t15 -36z" />
    <glyph glyph-name="yacute" unicode="&#xfd;" horiz-adv-x="688" 
d="M663 742l-260 -354v-388h-116v388l-261 354h125l194 -264l194 264h124zM279 822l70 117h104l-104 -117h-70z" />
    <glyph glyph-name="thorn" unicode="&#xfe;" horiz-adv-x="568" 
d="M488 576q60 -68 60 -172q0 -106 -60 -172q-65 -74 -185 -74h-109v-158h-116v742h116v-92h109q118 0 185 -74zM411 302q33 37 33 102q0 64 -33 101q-36 40 -108 40h-109v-282h109q72 0 108 39z" />
    <glyph glyph-name="ydieresis" unicode="&#xff;" horiz-adv-x="688" 
d="M663 742l-260 -354v-388h-116v388l-261 354h125l194 -264l194 264h124zM322 888q0 -21 -15 -36t-36 -15t-36 15t-15 36t15 36t36 15t36 -15t15 -36zM469 888q0 -21 -15 -36t-36 -15t-36 15t-15 36t15 36t36 15t36 -15t15 -36z" />
    <glyph glyph-name="dotlessi" unicode="&#x131;" horiz-adv-x="270" 
d="M194 0h-116v533h116v-533z" />
    <glyph glyph-name="Lslash" unicode="&#x141;" horiz-adv-x="580" 
d="M564 105v-105h-311h-115v288l-97 -54v100l97 54v354h116v-290l150 82v-100l-150 -82v-247h310z" />
    <glyph glyph-name="lslash" unicode="&#x142;" horiz-adv-x="580" 
d="M564 105v-105h-311h-115v288l-97 -54v100l97 54v354h116v-290l150 82v-100l-150 -82v-247h310z" />
    <glyph glyph-name="OE" unicode="&#x152;" horiz-adv-x="1214" 
d="M1155 638h-329v-198h271v-105h-271v-230h329v-105h-330h-115v101q-50 -47 -110 -72q-70 -29 -145 -29t-144 29q-66 28 -118 80t-80 118q-29 69 -29 144t29 145q28 64 80 118q51 50 118 79q69 29 144 29t145 -29q60 -25 110 -72v101h115h330v-104zM635 191q75 75 75 180
t-75 180t-180 75t-180 -75t-75 -180t75 -180t180 -75t180 75z" />
    <glyph glyph-name="oe" unicode="&#x153;" horiz-adv-x="1201" 
d="M1131 638h-329v-198h271v-105h-271v-230h329v-105h-330h-115v101q-50 -47 -110 -72q-70 -29 -145 -29t-144 29q-66 28 -118 80t-80 118q-29 69 -29 144t29 145q28 64 80 118q51 50 118 79q69 29 144 29t145 -29q60 -25 110 -72v101h115h330v-104zM611 191q75 75 75 180
t-75 180t-180 75t-180 -75t-75 -180t75 -180t180 -75t180 75z" />
    <glyph glyph-name="Scaron" unicode="&#x160;" horiz-adv-x="528" 
d="M364 935l-98 -117l-104 116l39 35l64 -71l59 70zM469 253q17 -53 2 -104q-16 -54 -61 -93.5t-106 -51.5q-20 -4 -45 -4q-47 0 -88 16q-72 29 -123 95l92 72q32 -43 73 -58q34 -14 68 -6q28 5 49.5 22t28.5 40q12 40 -34 84q-49 46 -91 88l-91 86q-42 40 -57 89
q-16 49 -2 94q13 48 55 83q39 33 89 42q54 12 110 -8q58 -23 101 -75l-91 -73q-43 52 -98 42q-20 -4 -35 -15.5t-19 -27.5q-9 -31 28 -67l124 -119q24 -24 56 -54q48 -44 65 -97z" />
    <glyph glyph-name="scaron" unicode="&#x161;" horiz-adv-x="528" 
d="M364 935l-98 -117l-104 116l39 35l64 -71l59 70zM469 253q17 -53 2 -104q-16 -54 -61 -93.5t-106 -51.5q-20 -4 -45 -4q-47 0 -88 16q-72 29 -123 95l92 72q32 -43 73 -58q34 -14 68 -6q28 5 49.5 22t28.5 40q12 40 -34 84q-49 46 -91 88l-91 86q-42 40 -57 89
q-16 49 -2 94q13 48 55 83q39 33 89 42q54 12 110 -8q58 -23 101 -75l-91 -73q-43 52 -98 42q-20 -4 -35 -15.5t-19 -27.5q-9 -31 28 -67l124 -119q24 -24 56 -54q48 -44 65 -97z" />
    <glyph glyph-name="Ydieresis" unicode="&#x178;" horiz-adv-x="688" 
d="M663 742l-260 -354v-388h-116v388l-261 354h125l194 -264l194 264h124zM322 888q0 -21 -15 -36t-36 -15t-36 15t-15 36t15 36t36 15t36 -15t15 -36zM469 888q0 -21 -15 -36t-36 -15t-36 15t-15 36t15 36t36 15t36 -15t15 -36z" />
    <glyph glyph-name="Zcaron" unicode="&#x17d;" horiz-adv-x="705" 
d="M446 935l-98 -117l-104 116l39 35l64 -71l59 70zM629 0v116h-371l381 626h-505v-116h298l-381 -626h578z" />
    <glyph glyph-name="zcaron" unicode="&#x17e;" horiz-adv-x="705" 
d="M446 935l-98 -117l-104 116l39 35l64 -71l59 70zM629 0v116h-371l381 626h-505v-116h298l-381 -626h578z" />
    <glyph glyph-name="florin" unicode="&#x192;" horiz-adv-x="526" 
d="M338 470h129l-13 -91h-129l-48 -346q-15 -105 -84 -154q-47 -32 -108 -32q-36 0 -72 10l38 97q63 -16 91 4q27 19 35 75l48 346h-85l13 91h85l16 115q15 104 84 153q72 51 175 10l-33 -84q-62 15 -91 -4q-27 -20 -35 -75z" />
    <glyph glyph-name="circumflex" unicode="&#x2c6;" horiz-adv-x="264" 
d="M232 626l-40 -34l-59 70l-64 -70l-39 35l104 115z" />
    <glyph glyph-name="caron" unicode="&#x2c7;" horiz-adv-x="263" 
d="M232 708l-98 -116l-104 115l39 35l64 -71l59 71z" />
    <glyph glyph-name="breve" unicode="&#x2d8;" horiz-adv-x="383" 
d="M47 688l64 -5q9 -18 19 -27q14 -14 27 -19q19 -7 34 -7t34 7q13 5 27 19q10 9 19 27l64 5q-3 -15 -9 -27q-4 -11 -13 -26q-7 -11 -18 -22q-10 -10 -23 -18q-9 -7 -25 -14q-9 -4 -27 -8q-15 -3 -29 -3q-15 0 -29 3q-20 4 -27 8q-18 8 -26 14q-14 10 -22 18q-11 11 -18 22
q-6 8 -14 26q-6 15 -8 27z" />
    <glyph glyph-name="dotaccent" unicode="&#x2d9;" horiz-adv-x="248" 
d="M194 603q0 -29 -20.5 -49.5t-49.5 -20.5t-49.5 20.5t-20.5 49.5t20.5 49.5t49.5 20.5q28 0 49 -20.5t21 -49.5z" />
    <glyph glyph-name="ring" unicode="&#x2da;" horiz-adv-x="260" 
d="M131 589q-32 0 -54.5 22.5t-22.5 54.5t22.5 54t54.5 22q31 0 53.5 -22t22.5 -54t-22 -54.5t-54 -22.5zM131 696q-13 0 -22 -9t-9 -21q0 -13 9 -22t22 -9q12 0 21 9t9 22q0 12 -9 21t-21 9z" />
    <glyph glyph-name="ogonek" unicode="&#x2db;" horiz-adv-x="279" 
d="M180 -133l42 -54l-12 -9q-22 -18 -51 -21q-4 -1 -13 -1q-19 0 -38 8q-51 22 -56 78q-3 40 24 82q16 23 42 46l4 4h119l-41 -27q-46 -31 -66 -61q-15 -21 -13 -39q0 -14 14 -20q6 -3 11 -3q11 0 22 8z" />
    <glyph glyph-name="tilde" unicode="&#x2dc;" horiz-adv-x="373" 
d="M320 742v-12q0 -20 -9 -37q-9 -16 -25 -26q-22 -14 -50 -14q-30 0 -59 15q-18 9 -37 9q-16 0 -26 -6q-8 -6 -8 -14v-12h-54v12q0 20 9 35q10 17 25 25q23 14 54 14h2q30 0 60 -14q16 -9 34 -9q13 0 21 5q8 4 8 17v12h55z" />
    <glyph glyph-name="hungarumlaut" unicode="&#x2dd;" horiz-adv-x="420" 
d="M60 619l49 123h110l-86 -123h-73zM215 619l49 123h111l-86 -123h-74z" />
    <glyph glyph-name="endash" unicode="&#x2013;" horiz-adv-x="548" 
d="M471 321h-393v100h393v-100z" />
    <glyph glyph-name="emdash" unicode="&#x2014;" horiz-adv-x="837" 
d="M759 321h-681v100h681v-100z" />
    <glyph glyph-name="quoteleft" unicode="&#x2018;" horiz-adv-x="284" 
d="M79 674q0 29 20.5 49.5t49.5 20.5t49.5 -21t20.5 -49t-19.5 -48t-47.5 -22l24 -107h-40l-52 151q-5 13 -5 26z" />
    <glyph glyph-name="quoteright" unicode="&#x2019;" horiz-adv-x="284" 
d="M205 674q0 -13 -5 -26l-53 -151h-40l24 107q-28 1 -47 21.5t-19 48.5q0 29 20.5 49.5t49.5 20.5t49.5 -21t20.5 -49z" />
    <glyph glyph-name="quotesinglbase" unicode="&#x201a;" horiz-adv-x="283" 
d="M204 70q0 -13 -5 -26l-53 -151h-40l24 107q-28 2 -47 22t-19 48q0 29 20.5 49t49.5 20t49.5 -20.5t20.5 -48.5z" />
    <glyph glyph-name="quotedblleft" unicode="&#x201c;" horiz-adv-x="439" 
d="M234 674q0 29 20.5 49.5t49.5 20.5q28 0 49 -21t21 -49t-19.5 -48t-47.5 -22l24 -107h-40l-52 151q-5 13 -5 26zM79 674q0 29 20.5 49.5t49.5 20.5t49.5 -21t20.5 -49t-19.5 -48t-47.5 -22l24 -107h-40l-52 151q-5 13 -5 26z" />
    <glyph glyph-name="quotedblright" unicode="&#x201d;" horiz-adv-x="439" 
d="M205 674q0 -13 -5 -26l-53 -151h-40l24 107q-28 1 -47 21.5t-19 48.5q0 29 20.5 49.5t49.5 20.5t49.5 -21t20.5 -49zM360 674q0 -13 -5 -26l-53 -151h-40l24 107q-28 1 -47 21.5t-19 48.5q0 29 20.5 49.5t49.5 20.5q28 0 49 -21t21 -49z" />
    <glyph glyph-name="quotedblbase" unicode="&#x201e;" horiz-adv-x="438" 
d="M204 70q0 -13 -5 -26l-53 -151h-40l24 107q-28 2 -47 22t-19 48q0 29 20.5 49t49.5 20t49.5 -20.5t20.5 -48.5zM359 70q0 -13 -5 -26l-53 -151h-40l24 107q-28 2 -47 22t-19 48q0 29 20.5 49t49.5 20t49.5 -20.5t20.5 -48.5z" />
    <glyph glyph-name="dagger" unicode="&#x2020;" horiz-adv-x="444" 
d="M433 601v-90h-161v-655h-100v655h-161v90h161v181h100v-181h161z" />
    <glyph glyph-name="daggerdbl" unicode="&#x2021;" horiz-adv-x="453" 
d="M277 511v-293h161v-90h-161v-272h-100v272h-161v90h161v293h-161v90h161v181h100v-181h161v-90h-161z" />
    <glyph glyph-name="bullet" unicode="&#x2022;" horiz-adv-x="307" 
d="M254 371q0 -41 -29.5 -70.5t-70.5 -29.5t-70.5 29.5t-29.5 70.5t29.5 70.5t70.5 29.5t70.5 -29.5t29.5 -70.5z" />
    <glyph glyph-name="ellipsis" unicode="&#x2026;" horiz-adv-x="759" 
d="M212 70q0 -29 -20.5 -49.5t-49.5 -20.5t-49.5 20.5t-20.5 49.5t20.5 49.5t49.5 20.5q28 0 49 -21t21 -49zM449 70q0 -29 -20.5 -49.5t-49.5 -20.5t-49 20.5t-20 49.5t20.5 49.5t48.5 20.5q29 0 49.5 -20.5t20.5 -49.5zM687 70q0 -29 -20.5 -49.5t-49.5 -20.5t-49.5 20.5
t-20.5 49.5t20.5 49.5t49.5 20.5t49.5 -21t20.5 -49z" />
    <glyph glyph-name="perthousand" unicode="&#x2030;" horiz-adv-x="981" 
d="M201 0h-96l405 742h96zM182 392q-30 0 -56 16q-22 14 -37 42q-23 44 -23 117t23 117q13 26 37 42q23 16 56 16q32 0 57 -16q23 -17 36 -42q23 -42 23 -117q0 -73 -23 -117q-13 -26 -37 -42q-26 -16 -56 -16zM182 687q-30 0 -44 -28q-17 -32 -17 -92q0 -59 17 -91
q14 -29 44 -29q29 0 45 29q16 31 16 91q0 61 -16 92q-15 28 -45 28zM530 350q33 0 56 -16q22 -14 37 -42q23 -44 23 -117t-23 -117q-13 -26 -37 -42q-23 -16 -56 -16q-32 0 -57 16q-23 15 -36 42q-23 42 -23 117t23 117q13 25 36 42q25 16 57 16zM530 55q29 0 44 28
q17 32 17 92t-17 92q-15 28 -44 28t-45 -28q-16 -31 -16 -92t16 -92q16 -28 45 -28zM829 350q33 0 56 -16q22 -14 37 -42q23 -44 23 -117t-23 -117q-13 -26 -37 -42q-23 -16 -56 -16q-32 0 -57 16q-22 15 -36 42q-23 42 -23 117t23 117q13 25 36 42q25 16 57 16zM829 55
q29 0 44 28q17 32 17 92t-17 92q-15 28 -44 28t-45 -28q-16 -31 -16 -92t16 -92q16 -28 45 -28z" />
    <glyph glyph-name="guilsinglleft" unicode="&#x2039;" horiz-adv-x="363" 
d="M308 32h-115l-176 236l175 233h115l-175 -233z" />
    <glyph glyph-name="guilsinglright" unicode="&#x203a;" horiz-adv-x="363" 
d="M55 32l176 236l-176 233h115l176 -233l-176 -236h-115z" />
    <glyph glyph-name="fraction" unicode="&#x2044;" horiz-adv-x="364" 
d="M131 -97h-116l219 928h116z" />
    <glyph glyph-name="Euro" unicode="&#x20ac;" horiz-adv-x="661" 
d="M596 39q-74 -39 -157 -39q-73 0 -137 30q-62 28 -111 80q-58 62 -84 145h-74v93h58q-1 8 -1 23q0 16 1 23h-58v93h74q27 85 84 145q49 52 111 80q64 30 137 30q82 0 153 -37l-53 -103q-48 24 -100 24q-67 0 -122 -38t-85 -101h274v-93h-299q0 -3 -0.5 -11t-0.5 -12
t0.5 -11.5t0.5 -11.5h299v-93h-274q30 -63 85.5 -101t121.5 -38q53 0 102 26z" />
    <glyph glyph-name="trademark" unicode="&#x2122;" horiz-adv-x="832" 
d="M56 725v57h283v-57h-110v-343h-63v343h-110zM567 520l188 280v-418h-63v212l-125 -186l-125 186v-212h-63v418z" />
    <glyph glyph-name="minus" unicode="&#x2212;" horiz-adv-x="759" 
d="M681 321h-603v100h603v-100z" />
    </font>
</defs>
</svg>
